<svg width="28" height="28" viewBox="0 0 28 28" fill="none" xmlns="http://www.w3.org/2000/svg">
<path d="M24.8552 9.1846L13.6201 18.1461L6.41993 10.2389C5.94441 9.71669 5.97921 8.90507 6.49766 8.4261C7.0161 7.94713 7.82187 7.98219 8.29739 8.5044L13.896 14.6528L24.1295 6.49022C24.681 6.05032 25.4821 6.14404 25.9189 6.69955C25.9727 6.76802 26.0185 6.84029 26.0563 6.91523C26.1503 6.9926 26.2316 7.08938 26.2944 7.20474C27.5948 9.59431 28.1759 12.3221 27.9537 15.0555C27.7021 18.1506 26.4347 21.0783 24.3498 23.3804C22.2649 25.6825 19.4801 27.2292 16.4312 27.7785C13.3822 28.3278 10.241 27.8487 7.49899 26.4162C4.757 24.9837 2.56892 22.6786 1.27704 19.8615C-0.014829 17.0445 -0.337608 13.8743 0.359204 10.847C1.05602 7.81975 2.73311 5.10615 5.12811 3.13075C7.24424 1.38536 9.81534 0.303275 12.5201 0.00596305C13.1116 -0.0590633 13.6097 0.416261 13.6269 1.01541C13.6441 1.61198 13.1777 2.10505 12.5896 2.17776C10.3605 2.45336 8.24518 3.35998 6.49703 4.80185C4.47157 6.47245 3.05325 8.76735 2.46395 11.3275C1.87466 13.8877 2.14763 16.5687 3.24017 18.9511C4.33271 21.3335 6.18318 23.283 8.50208 24.4944C10.821 25.7059 13.4775 26.1111 16.056 25.6465C18.6346 25.182 20.9897 23.8739 22.7528 21.927C24.516 19.9801 25.5879 17.5042 25.8007 14.8866C25.9601 12.9253 25.6305 10.9673 24.8552 9.1846Z" fill="white"/>
</svg>
